<?xml version="1.0" standalone="no"?>
<!DOCTYPE svg PUBLIC "-//W3C//DTD SVG 20010904//EN"
 "http://www.w3.org/TR/2001/REC-SVG-20010904/DTD/svg10.dtd">
<svg version="1.0" xmlns="http://www.w3.org/2000/svg"
 width="816.000000pt" height="816.000000pt" viewBox="0 0 816.000000 816.000000"
 preserveAspectRatio="xMidYMid meet">
<metadata>
Created by potrace 1.14, written by Peter Selinger 2001-2017
</metadata>
<g transform="translate(0.000000,816.000000) scale(0.100000,-0.100000)"
fill="#000000" stroke="none">
<path d="M3245 8089 c-27 -39 -58 -79 -67 -89 -10 -10 -39 -45 -64 -77 -26
-32 -54 -65 -63 -74 -24 -24 -232 -247 -259 -277 -64 -72 -174 -214 -215 -277
-124 -195 -181 -368 -179 -555 0 -50 8 -155 12 -155 1 0 4 -13 6 -30 27 -179
176 -402 342 -514 55 -38 173 -165 173 -188 1 -10 -2 -67 -5 -128 -3 -60 -6
-145 -7 -187 0 -43 -5 -79 -10 -79 -32 -5 -151 -60 -255 -120 l-52 -29 -56 95
c-31 53 -56 98 -56 101 0 2 -12 23 -27 47 -31 48 -41 64 -73 127 -13 25 -27
47 -30 50 -5 4 -38 61 -205 353 -59 103 -48 95 -92 72 -21 -11 -41 -23 -44
-28 -3 -4 -12 5 -20 20 -8 16 -16 30 -19 33 -3 3 -12 18 -20 33 -20 39 -65 82
-109 104 -72 35 -233 13 -320 -44 -14 -9 -28 -16 -30 -14 -2 1 -7 -1 -10 -6
-3 -4 -24 -20 -46 -35 -88 -58 -149 -139 -161 -213 -12 -71 -3 -110 42 -191
l35 -63 -41 -26 c-41 -26 -46 -47 -18 -79 16 -19 278 -478 278 -487 0 -5 4 -9
9 -9 5 0 11 -8 14 -17 3 -10 21 -43 39 -74 18 -31 62 -106 97 -168 l63 -111
-28 -38 c-43 -57 -136 -173 -165 -207 -140 -161 -199 -226 -298 -325 -64 -63
-135 -131 -157 -151 -66 -59 -115 -180 -130 -321 -9 -83 -11 -259 -4 -323 5
-43 2 -63 -16 -100 -13 -25 -22 -47 -22 -48 2 -4 -24 -82 -43 -132 -13 -35
-35 -64 -66 -90 -58 -49 -143 -135 -141 -144 1 -3 -4 -19 -10 -34 -7 -16 -12
-33 -12 -38 0 -5 -20 -49 -44 -97 -57 -114 -91 -198 -115 -286 -32 -115 -34
-124 -37 -276 -4 -188 16 -288 94 -476 46 -111 124 -240 184 -304 13 -14 59
-69 102 -123 100 -125 234 -260 305 -310 l24 -16 2 -228 c1 -216 3 -231 24
-276 29 -58 99 -120 166 -146 28 -10 59 -23 70 -27 40 -15 213 -14 267 2 57
17 130 55 164 85 17 16 26 18 55 8 36 -11 49 -15 61 -18 4 -1 23 -8 43 -17 19
-8 37 -14 40 -14 3 0 6 0 8 -1 1 0 9 -2 17 -4 8 -2 35 -10 60 -18 25 -8 59
-18 75 -22 17 -5 36 -10 43 -12 6 -1 18 -4 25 -6 6 -2 32 -9 57 -16 25 -7 46
-13 47 -13 2 1 17 -4 35 -9 18 -6 44 -12 58 -15 14 -3 43 -10 65 -16 22 -6 47
-12 55 -13 8 -2 67 -14 130 -28 63 -13 149 -30 190 -37 41 -7 84 -14 95 -16
124 -24 369 -54 590 -71 50 -4 225 -7 390 -7 259 -1 382 4 545 19 19 1 71 6
115 9 44 4 87 9 95 11 8 2 40 7 70 10 30 3 67 8 83 10 67 12 84 14 112 19 26
4 140 24 240 41 17 3 41 8 55 12 36 9 42 10 75 16 38 6 165 37 185 44 8 4 18
5 22 5 4 -1 27 5 50 12 24 8 72 22 107 31 36 9 83 22 105 30 23 7 82 25 131
40 50 14 99 30 110 35 47 20 58 19 88 -2 18 -12 34 -25 37 -28 15 -16 105 -52
156 -61 70 -13 191 -6 256 14 102 32 169 85 215 169 20 38 22 54 22 267 l1
226 53 45 c62 52 231 223 269 271 15 19 37 48 49 64 13 17 37 46 53 66 51 59
59 71 102 139 79 128 148 302 171 430 2 14 7 39 12 55 8 33 7 261 -2 310 -24
132 -60 237 -134 393 -29 62 -53 117 -53 123 0 28 -54 114 -96 151 -111 98
-124 117 -167 238 l-40 115 -2 175 c-1 96 -5 198 -9 225 -4 28 -9 59 -10 70
-2 11 -6 30 -10 42 -4 12 -9 30 -11 41 -7 39 -54 128 -82 155 -15 15 -48 44
-72 64 -57 49 -222 220 -309 321 -26 30 -55 64 -65 76 -17 18 -42 48 -97 116
-17 21 -45 56 -94 120 l-35 44 19 31 c10 16 28 48 40 70 26 47 90 159 105 183
6 10 28 49 50 87 22 39 44 78 50 87 5 9 23 41 39 70 15 29 34 60 42 69 8 8 14
18 14 22 0 3 17 34 37 69 55 93 82 140 96 168 6 14 17 31 24 38 17 18 16 32
-2 32 -8 0 -15 3 -15 8 0 4 -13 13 -29 20 l-30 13 41 78 c43 85 53 147 34 210
-19 60 -43 92 -122 160 -46 39 -163 101 -239 126 -132 44 -264 -9 -325 -131
-31 -63 -38 -66 -85 -39 l-42 25 -54 -92 c-30 -51 -56 -97 -58 -103 -2 -5 -12
-21 -21 -35 -9 -14 -28 -45 -42 -70 -44 -79 -68 -121 -166 -290 -53 -91 -109
-188 -124 -217 -16 -28 -34 -50 -41 -49 -6 1 -41 18 -77 38 -58 32 -121 63
-200 95 -24 9 -25 15 -27 94 -1 89 -12 284 -17 334 -2 17 -7 62 -11 100 -4 39
-8 72 -10 75 -2 3 -6 24 -9 46 -8 49 -13 79 -21 107 -35 132 -76 247 -116 323
-17 32 -37 69 -43 81 -6 13 -14 23 -18 23 -5 0 -8 5 -8 11 0 16 -101 132 -154
177 -25 20 -143 102 -149 102 -2 0 -31 12 -63 27 -33 15 -62 28 -66 29 -5 1
-9 2 -10 4 -3 2 -11 4 -108 28 -41 11 -100 22 -130 26 -63 8 -70 12 -38 21 49
16 532 251 563 274 6 5 46 27 90 51 44 23 83 45 88 49 8 8 -25 51 -39 51 -5 0
-27 17 -50 38 -22 20 -60 53 -85 72 -80 63 -201 161 -209 170 -3 3 -48 39
-100 81 -53 42 -102 83 -110 91 -8 7 -31 25 -50 38 -19 13 -41 30 -49 38 -11
11 -17 10 -36 -2 -13 -9 -39 -24 -57 -34 -18 -11 -57 -33 -86 -51 -29 -17 -57
-31 -62 -31 -6 0 -10 -4 -10 -10 0 -5 -8 -10 -19 -10 -10 0 -24 -7 -31 -15
-26 -31 -38 -26 -350 122 -135 64 -370 173 -373 173 -1 -1 -24 -32 -52 -71z
m-1671 -2585 c3 -8 2 -12 -4 -9 -6 3 -10 10 -10 16 0 14 7 11 14 -7z m61 -106
c18 -32 30 -58 27 -58 -4 0 -2 -4 4 -8 6 -4 42 -63 81 -132 39 -69 110 -192
157 -275 47 -82 86 -154 86 -158 0 -9 -31 -51 -68 -92 -9 -11 -28 -34 -40 -52
-13 -18 -31 -42 -42 -55 -10 -13 -56 -70 -101 -127 -88 -113 -105 -133 -189
-225 -81 -89 -251 -258 -256 -254 -2 2 45 54 104 114 163 168 270 291 390 449
33 44 87 114 120 155 l59 74 -41 81 c-23 44 -44 82 -48 83 -5 2 -8 8 -8 13 0
5 -22 49 -49 97 -89 160 -251 470 -231 442 6 -8 26 -41 45 -72z m1012 -760
c-3 -8 -6 -5 -6 6 -1 11 2 17 5 13 3 -3 4 -12 1 -19z m-463 -444 c3 -8 2 -12
-4 -9 -6 3 -10 10 -10 16 0 14 7 11 14 -7z m-933 -276 c-11 -18 -22 -46 -25
-63 -27 -133 -28 -144 -22 -479 1 -47 -3 -71 -11 -73 -7 -3 -13 -10 -13 -17 0
-7 -7 -26 -15 -43 -8 -16 -17 -40 -19 -54 -2 -13 -5 -25 -7 -26 -1 -2 -3 -7
-4 -13 -1 -5 -3 -12 -4 -15 0 -3 -1 -7 -1 -10 0 -3 -15 -36 -34 -74 -23 -46
-49 -80 -78 -102 l-43 -33 41 45 c36 40 86 145 98 205 5 25 45 126 55 139 5 5
7 100 5 210 -3 169 0 214 16 288 18 82 49 147 70 147 5 0 1 -15 -9 -32z m5519
-82 c0 -2 -8 -10 -17 -17 -16 -13 -17 -12 -4 4 13 16 21 21 21 13z m-50 -69
c0 -2 -10 -12 -22 -23 l-23 -19 19 23 c18 21 26 27 26 19z m-4343 -109 c-3 -7
-5 -2 -5 12 0 14 2 19 5 13 2 -7 2 -19 0 -25z m474 -335 c13 -16 12 -17 -3 -4
-17 13 -22 21 -14 21 2 0 10 -8 17 -17z m3569 -17 c0 -2 -8 -10 -17 -17 -16
-13 -17 -12 -4 4 13 16 21 21 21 13z m265 -14 c-3 -3 -11 0 -18 7 -9 10 -8 11
6 5 10 -3 15 -9 12 -12z m-3750 -52 c3 -6 -1 -7 -9 -4 -18 7 -21 14 -7 14 6 0
13 -4 16 -10z m76 -77 c13 -16 12 -17 -3 -4 -17 13 -22 21 -14 21 2 0 10 -8
17 -17z m-487 -69 c3 -8 2 -12 -4 -9 -6 3 -10 10 -10 16 0 14 7 11 14 -7z
m577 -21 c13 -16 12 -17 -3 -4 -17 13 -22 21 -14 21 2 0 10 -8 17 -17z m150
-130 c13 -16 12 -17 -3 -4 -17 13 -22 21 -14 21 2 0 10 -8 17 -17z m-1293 -18
c-3 -3 -9 2 -12 12 -6 14 -5 15 5 6 7 -7 10 -15 7 -18z m703 8 c13 -16 12 -17
-3 -4 -17 13 -22 21 -14 21 2 0 10 -8 17 -17z m-1691 -17 c0 -2 -8 -10 -17
-17 -16 -13 -17 -12 -4 4 13 16 21 21 21 13z m985 -30 c0 -15 -4 -21 -9 -16
-5 5 -6 16 -3 24 9 22 12 20 12 -8z m-1 -52 c3 -8 2 -12 -4 -9 -6 3 -10 10
-10 16 0 14 7 11 14 -7z m3773 -51 c-3 -10 -5 -4 -5 12 0 17 2 24 5 18 2 -7 2
-21 0 -30z m-3772 18 c3 -5 2 -12 -3 -15 -5 -3 -9 1 -9 9 0 17 3 19 12 6z
m369 -19 c3 -5 -1 -9 -9 -9 -8 0 -12 4 -9 9 3 4 7 8 9 8 2 0 6 -4 9 -8z m-31
-37 c-3 -9 -8 -14 -10 -11 -3 3 -2 9 2 15 9 16 15 13 8 -4z m3434 8 c-5 -8
-19 -94 -20 -120 0 -7 -4 -10 -9 -7 -5 3 -6 9 -4 13 3 4 8 30 12 57 6 49 11
64 20 64 3 0 3 -3 1 -7z m-3771 -33 c0 -12 -4 -16 -9 -11 -5 5 -6 14 -3 20 10
15 12 14 12 -9z m-1 -39 c3 -5 2 -12 -3 -15 -5 -3 -9 1 -9 9 0 17 3 19 12 6z
m1 -81 c0 -12 -4 -16 -9 -11 -5 5 -6 14 -3 20 10 15 12 14 12 -9z m-1 -39 c3
-5 2 -12 -3 -15 -5 -3 -9 1 -9 9 0 17 3 19 12 6z m2900 -22 c-6 -27 -11 -51
-14 -68 -1 -2 -3 -2 -6 1 -6 6 15 98 22 98 3 0 2 -14 -2 -31z m2015 -46 c19
-12 31 -23 27 -23 -9 0 -117 71 -117 78 0 4 22 -9 90 -55z m-4914 -13 c0 -12
-4 -16 -9 -11 -5 5 -6 14 -3 20 10 15 12 14 12 -9z m4969 -20 c3 -5 1 -10 -4
-10 -6 0 -11 5 -11 10 0 6 2 10 4 10 3 0 8 -4 11 -10z m-2091 -37 c-9 -53 -15
-55 -12 -5 2 23 7 42 11 42 4 0 5 -17 1 -37z m-2879 18 c3 -5 2 -12 -3 -15 -5
-3 -9 1 -9 9 0 17 3 19 12 6z m5129 -70 c-4 -5 -105 44 -129 62 -11 9 14 0 56
-21 42 -20 75 -39 73 -41z m-5133 16 c-10 -9 -11 -8 -5 6 3 10 9 15 12 12 3
-3 0 -11 -7 -18z m5182 -24 c-7 -2 -19 -2 -25 0 -7 3 -2 5 12 5 14 0 19 -2 13
-5z m47 -9 c0 -2 -7 -4 -15 -4 -8 0 -15 4 -15 10 0 5 7 7 15 4 8 -4 15 -8 15
-10z m37 -10 c-3 -3 -12 -4 -19 -1 -8 3 -5 6 6 6 11 1 17 -2 13 -5z m53 -26
c0 -5 -9 -4 -20 2 -11 6 -20 12 -20 14 0 2 9 2 20 -1 11 -3 20 -9 20 -15z
m-5229 -45 c13 -16 12 -17 -3 -4 -10 7 -18 15 -18 17 0 8 8 3 21 -13z m4699
-47 c0 -2 -8 -10 -17 -17 -16 -13 -17 -12 -4 4 13 16 21 21 21 13z m-400 -66
c0 -5 -2 -10 -4 -10 -3 0 -8 5 -11 10 -3 6 -1 10 4 10 6 0 11 -4 11 -10z m320
1 c-8 -5 -26 -11 -40 -15 -21 -5 -20 -3 5 9 32 15 60 20 35 6z m-286 -9 c3 -5
-1 -9 -9 -9 -8 0 -12 4 -9 9 3 4 7 8 9 8 2 0 6 -4 9 -8z m94 -9 c-10 -2 -26
-2 -35 0 -10 3 -2 5 17 5 19 0 27 -2 18 -5z m117 -2 c-8 -7 -95 -9 -95 -1 0 3
22 6 50 6 27 0 47 -2 45 -5z m-4437 -26 c-3 -3 -9 2 -12 12 -6 14 -5 15 5 6 7
-7 10 -15 7 -18z m4735 -80 c-3 -9 -8 -14 -10 -11 -3 3 -2 9 2 15 9 16 15 13
8 -4z m607 5 c0 -5 -5 -10 -11 -10 -5 0 -7 5 -4 10 3 6 8 10 11 10 2 0 4 -4 4
-10z m-1286 -75 c6 -6 26 -18 44 -26 17 -7 32 -17 32 -21 0 -12 -8 -10 -50 17
-42 26 -60 52 -59 82 0 11 5 7 11 -12 6 -16 16 -34 22 -40z m1273 33 c-3 -8
-6 -5 -6 6 -1 11 2 17 5 13 3 -3 4 -12 1 -19z m-5316 -15 c-12 -20 -14 -14 -5
12 4 9 9 14 11 11 3 -2 0 -13 -6 -23z m4682 -8 c-9 -19 -18 -33 -20 -32 -5 6
21 67 29 67 4 0 0 -16 -9 -35z m-4696 -67 c-3 -8 -6 -5 -6 6 -1 11 2 17 5 13
3 -3 4 -12 1 -19z m4286 -24 c23 -3 58 -6 77 -6 30 0 32 -1 10 -7 -23 -6 -59
-3 -145 13 -66 12 -85 18 -85 25 0 5 23 2 51 -5 28 -7 69 -16 92 -20z m1023
11 c-1 -8 -5 -17 -8 -21 -5 -4 -4 16 1 34 3 9 9 -1 7 -13z m-706 -2 c0 -4 -29
-8 -65 -8 -84 -1 -84 10 0 13 36 2 65 0 65 -5z m-175 -13 c-3 -5 -12 -10 -18
-10 -7 0 -6 4 3 10 19 12 23 12 15 0z m323 -72 c-13 -23 -26 -45 -30 -48 -3
-3 -14 -24 -23 -48 -10 -24 -19 -41 -22 -39 -5 6 15 51 56 124 39 70 56 79 19
11z m545 37 c-3 -9 -8 -14 -10 -11 -3 3 -2 9 2 15 9 16 15 13 8 -4z m-5229
-41 c3 -8 2 -12 -4 -9 -6 3 -10 10 -10 16 0 14 7 11 14 -7z m3 -46 c-3 -8 -6
-5 -6 6 -1 11 2 17 5 13 3 -3 4 -12 1 -19z m3907 -3 c3 -8 1 -15 -4 -15 -6 0
-10 7 -10 15 0 8 2 15 4 15 2 0 6 -7 10 -15z m-3907 -37 c-3 -8 -6 -5 -6 6 -1
11 2 17 5 13 3 -3 4 -12 1 -19z m3996 -78 c27 -11 55 -20 63 -20 8 0 14 -4 14
-9 0 -11 -34 -2 -92 22 -40 17 -78 50 -78 70 0 6 10 0 23 -15 12 -15 44 -37
70 -48z m-3996 38 c-3 -8 -6 -5 -6 6 -1 11 2 17 5 13 3 -3 4 -12 1 -19z m-22
-65 c-9 -15 -13 -19 -10 -8 4 11 10 29 13 40 3 11 7 14 9 8 3 -7 -3 -24 -12
-40z m4223 -29 c45 -8 95 -12 110 -9 l27 5 -25 -10 c-13 -6 -40 -8 -60 -5 -19
3 -51 8 -71 10 -20 3 -48 9 -62 14 -14 5 -28 7 -31 4 -3 -4 -6 -1 -6 6 0 8 6
11 18 6 9 -3 54 -13 100 -21z m332 10 c0 -2 -7 -4 -15 -4 -8 0 -15 4 -15 10 0
5 7 7 15 4 8 -4 15 -8 15 -10z m-114 -3 c-8 -12 -46 -21 -46 -11 0 5 10 11 23
13 12 2 23 5 25 6 2 0 1 -3 -2 -8z m34 -1 c0 -5 -2 -10 -4 -10 -3 0 -8 5 -11
10 -3 6 -1 10 4 10 6 0 11 -4 11 -10z m37 4 c-3 -3 -12 -4 -19 -1 -8 3 -5 6 6
6 11 1 17 -2 13 -5z m183 -22 c0 -5 -8 -18 -17 -30 -10 -11 -25 -30 -33 -42
-8 -13 -30 -40 -47 -62 -18 -22 -33 -47 -33 -56 0 -8 -3 -13 -6 -9 -8 8 4 41
24 65 9 11 37 48 61 81 44 61 51 68 51 53z m-4667 -92 c3 -11 1 -18 -4 -14 -5
3 -9 12 -9 20 0 20 7 17 13 -6z m3907 16 c0 -3 -4 -8 -10 -11 -5 -3 -10 -1
-10 4 0 6 5 11 10 11 6 0 10 -2 10 -4z m0 -41 c0 -9 16 -25 35 -37 42 -24 40
-36 -2 -14 -29 14 -62 66 -43 66 6 0 10 -7 10 -15z m-3919 -59 c-14 -36 -22
-33 -9 5 6 16 12 28 14 26 3 -2 0 -16 -5 -31z m4275 -85 c38 -1 71 -4 74 -7 2
-3 -29 -4 -70 -3 -52 1 -95 9 -140 27 -106 40 -140 55 -140 62 0 4 47 -12 104
-35 82 -33 119 -42 172 -44z m-4306 25 c0 -2 -8 -10 -17 -17 -16 -13 -17 -12
-4 4 13 16 21 21 21 13z m4469 -32 c2 -2 -14 -3 -37 -2 -23 1 -42 5 -42 9 0 7
71 1 79 -7z m-4523 -60 c1 -9 0 -13 -4 -10 -3 4 -7 14 -8 22 -1 9 0 13 4 10 3
-4 7 -14 8 -22z m4091 -6 c-3 -8 -6 -5 -6 6 -1 11 2 17 5 13 3 -3 4 -12 1 -19z
m91 -83 c19 -9 31 -19 28 -23 -4 -3 -12 0 -18 6 -7 7 -19 12 -27 12 -16 0 -81
52 -81 64 0 4 15 -4 33 -17 17 -14 47 -32 65 -42z m422 1 c0 -2 -8 -10 -17
-17 -16 -13 -17 -12 -4 4 13 16 21 21 21 13z m-4610 -9 c0 -2 -10 -12 -22 -23
l-23 -19 19 23 c18 21 26 27 26 19z m4411 -61 c32 -1 55 -5 52 -10 -14 -22
-233 29 -233 54 0 4 28 -4 63 -18 39 -16 82 -26 118 -26z m99 10 c0 -2 -7 -7
-16 -10 -8 -3 -12 -2 -9 4 6 10 25 14 25 6z m-1625 -25 c3 -5 2 -12 -3 -15 -5
-3 -9 1 -9 9 0 17 3 19 12 6z m-3048 -66 c0 -8 -4 -12 -9 -9 -5 3 -6 10 -3 15
9 13 12 11 12 -6z m4826 -156 c-1 -89 -5 -164 -8 -167 -3 -3 -5 70 -5 161 0
92 3 167 8 167 4 0 6 -73 5 -161z m-4828 122 c3 -5 2 -12 -3 -15 -5 -3 -9 1
-9 9 0 17 3 19 12 6z m1 -51 c0 -12 -4 -16 -9 -11 -5 5 -6 14 -3 20 10 15 12
14 12 -9z m0 -86 c1 -9 0 -13 -4 -10 -3 4 -7 14 -8 22 -1 9 0 13 4 10 3 -4 7
-14 8 -22z m-5 -81 c-12 -20 -14 -14 -5 12 4 9 9 14 11 11 3 -2 0 -13 -6 -23z
m386 -95 c-3 -7 -5 -2 -5 12 0 14 2 19 5 13 2 -7 2 -19 0 -25z m4446 -65 c-4
-103 -13 -107 -13 -5 0 45 3 82 8 82 4 0 6 -34 5 -77z m-3603 2 c0 -5 -5 -3
-10 5 -5 8 -10 20 -10 25 0 6 5 3 10 -5 5 -8 10 -19 10 -25z m-1323 -47 c2
-24 -20 -65 -46 -85 -29 -22 -34 -13 -7 12 14 13 27 31 27 40 1 8 3 20 4 25 1
6 3 15 4 20 2 19 17 10 18 -12z m1330 -10 c-3 -8 -6 -5 -6 6 -1 11 2 17 5 13
3 -3 4 -12 1 -19z m20 -60 c-3 -8 -6 -5 -6 6 -1 11 2 17 5 13 3 -3 4 -12 1
-19z m18 -38 c3 -5 1 -10 -4 -10 -6 0 -11 5 -11 10 0 6 2 10 4 10 3 0 8 -4 11
-10z"/>
</g>
</svg>
